<svg width="1600" height="1000" viewBox="0 0 1600 1000" fill="none" xmlns="http://www.w3.org/2000/svg" role="img" aria-label="Calm cross-border horizon landscape">
  <defs>
    <linearGradient id="sky" x1="800" y1="0" x2="800" y2="620" gradientUnits="userSpaceOnUse">
      <stop offset="0" stop-color="#EAF1F7"/>
      <stop offset="1" stop-color="#C9D9E8"/>
    </linearGradient>
    <linearGradient id="far" x1="800" y1="430" x2="800" y2="760" gradientUnits="userSpaceOnUse">
      <stop offset="0" stop-color="#8EA7BF"/>
      <stop offset="1" stop-color="#6E879F"/>
    </linearGradient>
    <linearGradient id="mid" x1="800" y1="560" x2="800" y2="840" gradientUnits="userSpaceOnUse">
      <stop offset="0" stop-color="#5D7893"/>
      <stop offset="1" stop-color="#42607B"/>
    </linearGradient>
    <linearGradient id="near" x1="800" y1="650" x2="800" y2="980" gradientUnits="userSpaceOnUse">
      <stop offset="0" stop-color="#39556E"/>
      <stop offset="1" stop-color="#203A52"/>
    </linearGradient>
    <radialGradient id="sun" cx="0" cy="0" r="1" gradientUnits="userSpaceOnUse" gradientTransform="translate(1200 240) rotate(90) scale(180)">
      <stop stop-color="#FFF8D4" stop-opacity="0.95"/>
      <stop offset="1" stop-color="#FFF8D4" stop-opacity="0"/>
    </radialGradient>
  </defs>

  <rect width="1600" height="1000" fill="url(#sky)"/>
  <rect x="0" y="360" width="1600" height="300" fill="url(#sun)"/>

  <path d="M0 520C150 470 250 500 380 450C520 396 660 430 820 380C980 330 1140 380 1260 350C1400 314 1490 350 1600 330V760H0V520Z" fill="url(#far)"/>
  <path d="M0 620C140 570 280 630 430 570C560 520 720 560 850 520C980 480 1140 520 1300 490C1420 466 1510 500 1600 480V840H0V620Z" fill="url(#mid)"/>
  <path d="M0 710C110 690 210 750 360 720C500 690 620 760 780 730C920 702 1100 760 1240 730C1380 700 1490 740 1600 720V1000H0V710Z" fill="url(#near)"/>

  <path d="M0 802C120 792 210 825 340 812C480 798 610 836 760 820C920 802 1050 836 1210 820C1370 804 1480 823 1600 818V1000H0V802Z" fill="#11293E" fill-opacity="0.5"/>

  <path d="M180 848C260 836 340 868 430 854C530 838 610 872 710 858C810 844 910 878 1010 862C1130 844 1210 880 1300 866C1390 852 1460 870 1520 864" stroke="#DCE7F1" stroke-opacity="0.45" stroke-width="3" stroke-linecap="round"/>
</svg>
